<svg xmlns:xlink="http://www.w3.org/1999/xlink" xmlns="http://www.w3.org/2000/svg" fill="none" viewBox="0 0 24 24" width="24" height="24"><path fill="#585858" fill-rule="evenodd" d="M12 7a1.5 1.5 0 1 0 0-3 1.5 1.5 0 0 0 0 3M9.012 9.483C9 9.541 9 9.611 9 9.75v.29c0 .336 0 .504.065.632a.6.6 0 0 0 .263.263c.128.065.296.065.632.065H11v6H9.96c-.336 0-.504 0-.632.065a.6.6 0 0 0-.263.263C9 17.456 9 17.624 9 17.96v.08c0 .336 0 .504.065.632a.6.6 0 0 0 .263.263c.128.065.296.065.632.065h4.08c.336 0 .504 0 .632-.065a.6.6 0 0 0 .263-.263c.065-.128.065-.296.065-.632v-.08c0-.336 0-.504-.065-.632a.6.6 0 0 0-.263-.263C14.544 17 14.376 17 14.04 17H13v-7h-.124c-.245-.587-.825-1-1.501-1H9.75c-.14 0-.21 0-.267.012a.6.6 0 0 0-.471.471" clip-rule="evenodd"/></svg>