<svg xmlns:xlink="http://www.w3.org/1999/xlink" xmlns="http://www.w3.org/2000/svg" fill="none" viewBox="0 0 18 18" width="18" height="18"><path fill="#585858" fill-rule="evenodd" d="M9 0a5 5 0 0 1 5 5v1.143c.192.04.366.093.53.161a4 4 0 0 1 2.165 2.165C17 9.204 17 10.136 17 12s0 2.796-.305 3.53a4 4 0 0 1-2.164 2.165C13.796 18 12.864 18 11 18H7c-1.864 0-2.796 0-3.53-.305a4 4 0 0 1-2.166-2.164C1 14.796 1 13.864 1 12s0-2.796.304-3.53A4 4 0 0 1 3.47 6.303c.165-.068.339-.12.531-.161V5a5 5 0 0 1 5-5M6.022 6.002Q6.463 6 7 6h4q.563 0 1.02.003V5c0-1.828-1.388-3.002-3.02-3.002S6.022 3.178 6.022 5zM3 11.2c0-1.12 0-1.68.218-2.108a2 2 0 0 1 .874-.874C4.52 8 5.08 8 6.2 8h5.6c1.12 0 1.68 0 2.108.218a2 2 0 0 1 .874.874C15 9.52 15 10.08 15 11.2v1.6c0 1.12 0 1.68-.218 2.108a2 2 0 0 1-.874.874C13.48 16 12.92 16 11.8 16H6.2c-1.12 0-1.68 0-2.108-.218a2 2 0 0 1-.874-.874C3 14.48 3 13.92 3 12.8zm7.5-.2c0 .444-.193.843-.5 1.118V13.5c0 .093 0 .14-.003.178a.9.9 0 0 1-.819.819c-.039.003-.085.003-.178.003s-.14 0-.178-.003a.9.9 0 0 1-.819-.819C8 13.64 8 13.593 8 13.5v-1.382A1.5 1.5 0 1 1 10.5 11" clip-rule="evenodd"/></svg>