<svg xmlns:xlink="http://www.w3.org/1999/xlink" xmlns="http://www.w3.org/2000/svg" fill="none" viewBox="0 0 127 32" width="127" height="32"><path fill="#585858" fill-rule="evenodd" d="M54.237 5.089h-8.145v20.766h4.881V20.65h3.236q1.812 0 3.277-.64 1.464-.639 2.482-1.707a7.6 7.6 0 0 0 1.576-2.489 8.1 8.1 0 0 0 .558-2.987 8.1 8.1 0 0 0-.558-3 7.3 7.3 0 0 0-1.59-2.462A7.5 7.5 0 0 0 57.472 5.7q-1.45-.61-3.236-.611m-3.264 4.494h3.012q1.368 0 2.274.896.906.897.906 2.347t-.906 2.333-2.274.882h-3.012zM70.32 26.14q1.785 0 3.264-.626a7.9 7.9 0 0 0 2.551-1.707 7.8 7.8 0 0 0 1.674-2.532q.6-1.45.6-3.1t-.614-3.101a8 8 0 0 0-1.701-2.546 7.9 7.9 0 0 0-2.566-1.721q-1.479-.626-3.208-.626-1.757 0-3.249.626a7.6 7.6 0 0 0-2.552 1.72 8 8 0 0 0-1.66 2.547q-.6 1.45-.6 3.1t.6 3.101 1.66 2.532a7.7 7.7 0 0 0 2.552 1.707q1.492.626 3.25.626m-3.374-7.994a3.47 3.47 0 0 1 .99-2.46q.46-.47 1.087-.74.628-.27 1.325-.27.698 0 1.325.27t1.088.74q.46.468.725 1.095.264.625.265 1.365 0 .712-.265 1.351a3.5 3.5 0 0 1-.725 1.11q-.46.47-1.088.74-.627.27-1.325.27-.697 0-1.325-.27a3.4 3.4 0 0 1-1.087-.74 3.5 3.5 0 0 1-.726-1.11 3.5 3.5 0 0 1-.264-1.351m21.578 8.022a6.3 6.3 0 0 0 2.566-.555 6.8 6.8 0 0 0 2.217-1.578q.963-1.025 1.548-2.504t.586-3.357q0-1.848-.586-3.328-.585-1.479-1.548-2.517a6.7 6.7 0 0 0-2.217-1.594 6.4 6.4 0 0 0-2.622-.554q-1.507 0-2.566.597a4.7 4.7 0 0 0-1.701 1.622v-1.906h-4.658V32h4.686v-7.823q1.365 1.99 4.295 1.991m-4.546-8.022a3.47 3.47 0 0 1 .99-2.46q.46-.47 1.087-.74.628-.27 1.325-.27.698 0 1.325.27.628.27 1.088.74.46.468.725 1.095.265.625.265 1.365 0 .712-.265 1.351a3.5 3.5 0 0 1-.725 1.11q-.46.47-1.088.74-.627.27-1.325.27-.697 0-1.325-.27a3.4 3.4 0 0 1-1.087-.74 3.5 3.5 0 0 1-.725-1.11 3.5 3.5 0 0 1-.265-1.351m19.151 8.022q1.73 0 3.013-.455t2.119-1.209a5 5 0 0 0 1.255-1.693 4.6 4.6 0 0 0 .419-1.906q0-1.28-.516-2.119a4.2 4.2 0 0 0-1.339-1.365 6.9 6.9 0 0 0-1.813-.811 28 28 0 0 0-1.938-.484q-1.59-.312-2.385-.569-.795-.255-.795-.796 0-.484.418-.754.419-.27 1.283-.27 1.758 0 2.455 1.45l4.462-1.393a10.5 10.5 0 0 0-1.213-1.537 6.5 6.5 0 0 0-1.478-1.152 7.3 7.3 0 0 0-1.855-.725q-1.032-.255-2.343-.256-1.45 0-2.649.384t-2.064 1.067a4.9 4.9 0 0 0-1.339 1.607 4.2 4.2 0 0 0-.474 1.949q0 1.25.488 2.062.488.81 1.283 1.323t1.771.782 1.925.47q1.394.285 2.314.54t.921.91q0 .484-.46.84-.46.355-1.353.355a3.4 3.4 0 0 1-1.757-.455q-.781-.455-1.088-1.394l-4.713 1.366q.835 2.048 2.65 3.143 1.812 1.095 4.796 1.095m14.439-15.987q-1.367 0-2.636.554-1.27.555-2.231 1.594-.963 1.037-1.548 2.517t-.586 3.328q0 1.878.586 3.357.585 1.478 1.562 2.504a6.9 6.9 0 0 0 2.231 1.578 6.3 6.3 0 0 0 2.566.555q1.422 0 2.51-.54a4.7 4.7 0 0 0 1.785-1.537v1.764h4.658V10.494h-4.658v1.763a4.75 4.75 0 0 0-1.729-1.522q-1.06-.554-2.51-.554m4.462 7.965q0 .712-.265 1.351a3.37 3.37 0 0 1-1.813 1.849q-.627.27-1.325.27-.697 0-1.324-.27a3.37 3.37 0 0 1-1.813-1.849 3.5 3.5 0 0 1-.265-1.351 3.46 3.46 0 0 1 .99-2.46 3.4 3.4 0 0 1 1.088-.74q.627-.27 1.324-.27t1.325.27 1.088.74.725 1.095q.265.625.265 1.365" clip-rule="evenodd"/><path fill="#FF015C" d="M9.088 6.368A12.7 12.7 0 0 0 16 8.402a12.73 12.73 0 0 0 6.914-2.034c1.827-1.228 3.497-3.016 3.497-4.77C26.411.944 26.03 0 25.066 0c-.644 0-1.198.36-1.914.825a12.66 12.66 0 0 1-7.15 2.198c-2.37 0-4.59-.648-6.49-1.777a26 26 0 0 1-.66-.42C8.137.36 7.583 0 6.938 0c-.964 0-1.346.945-1.346 1.599 0 1.753 1.67 3.54 3.497 4.77M9.088 25.632A12.7 12.7 0 0 1 16 23.597c2.544 0 4.914.747 6.914 2.034 1.827 1.229 3.497 3.017 3.497 4.77 0 .655-.382 1.599-1.345 1.599-.644 0-1.198-.36-1.914-.826a12.66 12.66 0 0 0-7.15-2.198c-2.37 0-4.59.649-6.49 1.778q-.354.218-.66.419c-.716.466-1.27.827-1.915.827-.964 0-1.346-.945-1.346-1.6 0-1.752 1.67-3.54 3.497-4.768M23.597 16c0-2.545.747-4.914 2.035-6.914 1.229-1.827 3.016-3.498 4.769-3.498.654 0 1.599.383 1.599 1.347 0 .644-.36 1.198-.826 1.915q-.201.306-.42.66a12.66 12.66 0 0 0-1.777 6.491 12.66 12.66 0 0 0 2.197 7.151c.466.716.826 1.27.826 1.914 0 .963-.944 1.345-1.599 1.345-1.753 0-3.541-1.67-4.77-3.497-1.288-2-2.034-4.37-2.034-6.914M6.368 9.086c1.287 2 2.034 4.37 2.034 6.914s-.746 4.913-2.034 6.914c-1.228 1.826-3.016 3.497-4.77 3.497C.946 26.411 0 26.03 0 25.066c0-.644.36-1.198.825-1.914q.202-.306.42-.662c1.13-1.9 1.778-4.12 1.778-6.489 0-2.37-.648-4.59-1.778-6.49a26 26 0 0 0-.42-.661C.36 8.133 0 7.58 0 6.935c0-.964.945-1.347 1.599-1.347 1.753 0 3.54 1.671 4.769 3.498"/></svg>