<svg xmlns:xlink="http://www.w3.org/1999/xlink" xmlns="http://www.w3.org/2000/svg" fill="none" viewBox="0 0 18 18" width="18" height="18"><path fill="#585858" fill-rule="evenodd" d="M10 2a2 2 0 0 1 1.995 1.85L12 4h.594a2.6 2.6 0 0 1 2.068 1.024l.108.153 1.806 2.763c.237.363.38.778.415 1.207l.009.216V11.4a2.6 2.6 0 0 1-2.039 2.54 2.5 2.5 0 0 1-4.91.06H7.95a2.5 2.5 0 0 1-4.912-.061 2.6 2.6 0 0 1-2.033-2.374L1 11.4V4.6a2.6 2.6 0 0 1 2.436-2.595L3.6 2zM5.5 12.5a1 1 0 1 0 0 2 1 1 0 0 0 0-2m7 0a1 1 0 1 0 0 2 1 1 0 0 0 0-2M10 4H3.6a.6.6 0 0 0-.592.503L3 4.6v6.8a.6.6 0 0 0 .503.592A2.5 2.5 0 0 1 5.5 11c.818 0 1.544.393 2 1h3c.456-.607 1.182-1 2-1 .814 0 1.538.39 1.994.992L14.4 12a.6.6 0 0 0 .592-.503L15 11.4V9.5h-2.6A2.4 2.4 0 0 1 10 7.1zm2 2v1.1c0 .22.18.4.4.4h1.499l-.803-1.228a.6.6 0 0 0-.403-.264l-.1-.008z" clip-rule="evenodd"/></svg>