<svg xmlns:xlink="http://www.w3.org/1999/xlink" xmlns="http://www.w3.org/2000/svg" fill="none" viewBox="0 0 24 24" width="18" height="18"><path fill="#585858" fill-rule="evenodd" d="M18 18a2 2 0 1 1-2 2c0-1.11.89-2 2-2M4 2a2 2 0 0 1 1.81 1.15l.4.85H21a1 1 0 0 1 1 1c0 .17-.05.34-.12.5l-3.58 6.47c-.34.61-1 1.03-1.75 1.03H9.1l-.9 1.63-.03.12c0 .138.112.25.25.25H19.4a.6.6 0 0 1 .6.6v.8a.6.6 0 0 1-.6.6H8a2 2 0 0 1-2-2c0-.35.09-.68.24-.96l1.36-2.45-3.329-7.019A1 1 0 0 0 3.368 4H2.6a.6.6 0 0 1-.6-.6v-.8a.6.6 0 0 1 .6-.6zm4 16a2 2 0 1 1-2 2c0-1.11.89-2 2-2m8.55-7 2.78-5H7.14l2.36 5z" clip-rule="evenodd"/></svg>