<svg xmlns:xlink="http://www.w3.org/1999/xlink" xmlns="http://www.w3.org/2000/svg" fill="none" viewBox="0 0 24 24" width="18" height="18"><path fill="#585858" fill-rule="evenodd" d="M12 12a4.5 4.5 0 1 1 0-9 4.5 4.5 0 0 1 0 9m-9 6.75v-.89c0-4.152 5.996-4.735 9-4.735s9 .583 9 4.735v.89A2.25 2.25 0 0 1 18.75 21H5.25A2.25 2.25 0 0 1 3 18.75M11.985 15c-2.427 0-4.681.45-5.933 1.243-.74.469-1.052.969-1.052 1.744v.513a.5.5 0 0 0 .5.5h13a.5.5 0 0 0 .5-.5v-.514c0-.638-.315-1.268-1.073-1.743C16.664 15.45 14.399 15 11.985 15M12 10a2.5 2.5 0 1 0 0-5 2.5 2.5 0 0 0 0 5" clip-rule="evenodd"/></svg>