<svg xmlns:xlink="http://www.w3.org/1999/xlink" xmlns="http://www.w3.org/2000/svg" fill="none" viewBox="0 0 18 18" width="18" height="18"><path fill="#006065" fill-rule="evenodd" d="M11.947 5.503c-.091.03-.17.11-.329.268l-3.79 3.79-.961-.962c-.159-.158-.238-.238-.33-.267a.4.4 0 0 0-.246 0c-.092.03-.17.109-.33.267l-.508.51c-.159.158-.238.237-.268.328a.4.4 0 0 0 0 .247c.03.092.11.17.268.33l1.38 1.38.034.033.509.51c.09.09.155.155.21.199q.063.049.119.068a.4.4 0 0 0 .247 0c.091-.03.17-.109.329-.267l.51-.51.064-.064 4.178-4.178c.158-.159.237-.238.267-.33a.4.4 0 0 0 0-.246c-.03-.092-.109-.17-.267-.33l-.51-.508c-.158-.159-.237-.238-.328-.268a.4.4 0 0 0-.248 0M9 1C4.584 1 1 4.584 1 9s3.584 8 8 8 8-3.584 8-8-3.584-8-8-8m0 14c-3.307 0-6-2.693-6-6s2.693-6 6-6 6 2.693 6 6-2.693 6-6 6" clip-rule="evenodd"/></svg>