<svg xmlns:xlink="http://www.w3.org/1999/xlink" xmlns="http://www.w3.org/2000/svg" fill="none" viewBox="0 0 48 34" width="48" height="32"><g filter="url(#CARD_VISA_svg__a)" fill="none"><path fill="url(&quot;#CARD_VISA_svg__b&quot;)" fill-rule="evenodd" d="M0 6.4c0-2.24 0-3.36.436-4.216A4 4 0 0 1 2.184.436C3.04 0 4.16 0 6.4 0h35.2c2.24 0 3.36 0 4.216.436a4 4 0 0 1 1.748 1.748C48 3.04 48 4.16 48 6.4v21.2c0 2.24 0 3.36-.436 4.216a4 4 0 0 1-1.748 1.748C44.96 34 43.84 34 41.6 34H6.4c-2.24 0-3.36 0-4.216-.436a4 4 0 0 1-1.748-1.748C0 30.96 0 29.84 0 27.6z" clip-rule="evenodd"/></g><path fill="#FFFFFF" d="m18.564 21.597 1.81-10.214H23.2l-1.753 10.214z"/><path fill="#FFFFFF" d="m18.564 21.597 2.319-10.214H23.2l-1.753 10.214zM28.857 11.252c-2.828 0-4.864 1.385-4.864 3.38 0 1.496 1.414 2.272 2.545 2.77 1.131.5 1.47.832 1.47 1.275 0 .665-.904.997-1.696.997-1.131 0-1.753-.166-2.715-.554l-.396-.166-.396 2.272c.68.277 1.923.554 3.224.554 2.997 0 4.977-1.385 4.977-3.49 0-1.164-.736-2.05-2.432-2.771-1.018-.499-1.64-.776-1.64-1.275 0-.443.509-.886 1.64-.886.961 0 1.64.166 2.149.388l.283.11.452-2.16c-.565-.222-1.47-.444-2.601-.444"/><path fill="#FFFFFF" fill-rule="evenodd" d="M35.078 12.12c.282-.68.791-.737 1.47-.737h2.206l2.375 10.214h-2.715l-.34-1.703h-3.618l-.566 1.703h-3.054zm1.3 3.065s-.961 2.496-1.13 3.007v.057h2.375c-.114-.567-.68-3.121-.68-3.121l-.169-.965c-.17.398-.396 1.022-.396 1.022" clip-rule="evenodd"/><path fill="#FFFFFF" d="m13.36 18.533-.282-1.476c-.509-1.702-2.149-3.574-3.959-4.482l2.545 9.079h3.054L19.3 11.44h-3.054z"/><path fill="#FFFFFF" d="m13.36 18.533-.282-1.476c-.509-1.702-2.149-3.574-3.959-4.482l2.545 9.079h3.054L19.3 11.44h-2.488z"/><path fill="#FFFFFF" d="m5.5 11.383.509.114c3.62.85 6.108 3.007 7.07 5.56l-1.019-4.823c-.17-.68-.678-.851-1.3-.851z"/><path fill="#FFFFFF" d="M5.5 11.383c3.62.851 6.617 3.064 7.578 5.618l-.961-4.03a1.38 1.38 0 0 0-1.358-1.077z"/><defs><linearGradient id="CARD_VISA_svg__b" x1="0" x2="0" y1="0" y2="34" gradientUnits="userSpaceOnUse"><stop stop-color="#305FC4"/><stop offset="1" stop-color="#2B4AA8"/></linearGradient><filter id="CARD_VISA_svg__a" width="48" height="34" x="0" y="0" color-interpolation-filters="sRGB" filterUnits="userSpaceOnUse"><feFlood flood-opacity="0" result="BackgroundImageFix"/><feBlend in="SourceGraphic" in2="BackgroundImageFix" result="shape"/><feColorMatrix in="SourceAlpha" result="hardAlpha" values="0 0 0 0 0 0 0 0 0 0 0 0 0 0 0 0 0 0 127 0"/><feOffset dy="1"/><feComposite in2="hardAlpha" k2="-1" k3="1" operator="arithmetic"/><feColorMatrix values="0 0 0 0 1 0 0 0 0 1 0 0 0 0 1 0 0 0 0.2 0"/><feBlend in2="shape" result="effect1_innerShadow_444_4173"/></filter><linearGradient id="CARD_VISA_svg__b" x1="0" x2="0" y1="0" y2="34" gradientUnits="userSpaceOnUse"><stop stop-color="#305FC4"/><stop offset="1" stop-color="#2B4AA8"/></linearGradient></defs></svg>