<svg xmlns:xlink="http://www.w3.org/1999/xlink" xmlns="http://www.w3.org/2000/svg" fill="none" viewBox="0 0 24 24" width="24" height="24"><path fill="#585858" fill-rule="evenodd" d="M14 3a3 3 0 0 1 3 3h1.302a3 3 0 0 1 2.572 1.457l1.699 2.83A3 3 0 0 1 23 11.832V15a3 3 0 0 1-2.016 2.835 3.5 3.5 0 0 1-6.948.166H9.964a3.5 3.5 0 0 1-6.948-.166A3 3 0 0 1 1 15V6a3 3 0 0 1 3-3zM6.5 16a1.5 1.5 0 1 0 0 3 1.5 1.5 0 0 0 0-3m11 0a1.5 1.5 0 1 0 0 3 1.5 1.5 0 0 0 0-3M14 5H4a1 1 0 0 0-1 1v9c0 .34.17.64.429.821a3.5 3.5 0 0 1 6.234.178l4.674.001a3.5 3.5 0 0 1 6.234-.18c.26-.18.429-.48.429-.82v-3h-3.504a2.5 2.5 0 0 1-2.5-2.496L14.99 6H15a1 1 0 0 0-1-1m4.302 3H17v1.5a.5.5 0 0 0 .5.5h2.567l-.908-1.514A1 1 0 0 0 18.302 8" clip-rule="evenodd"/></svg>